<svg width="1437" height="96" viewBox="0 0 1437 96" fill="none" xmlns="http://www.w3.org/2000/svg">
<path d="M-3 66.3965L4.1 64.5247C11.1 62.5115 25 58.9797 39 58.8738C53.5 58.9797 68 62.5115 82 56.9666C95.8 51.2098 110 36.3762 124 30.6194C138.2 25.0745 152 28.6063 166 28.7122C180.5 28.6063 195 25.0745 209 28.7122C222.9 32.4913 237 43.793 251 45.6649C265.2 47.678 279 39.908 293 28.7122C307.6 17.3045 322 2.471 336 4.2369C349.9 6.0028 364 25.0745 378 24.9685C392.3 25.0745 406 6.00279 421 8.01592C434.6 9.88777 449 32.4913 463 40.014C477 47.678 491 39.908 505 41.9212C519.4 43.793 533 55.0948 548 47.572C561.7 39.908 576 13.7727 590 4.2369C604.1 -5.29895 618 2.471 632 15.5386C646.4 28.6063 661 47.678 675 60.7456C688.8 73.8133 703 81.5832 717 75.8264C731.1 70.2815 745 51.2098 759 43.793C773.5 36.3762 788 39.908 802 38.1421C815.8 36.3762 830 28.6063 844 32.4913C858.2 36.3762 872 51.2098 886 58.8738C900.5 66.3965 915 66.3965 929 60.7456C942.9 55.0948 957 43.793 971 45.6649C985.2 47.678 999 62.5115 1013 58.8738C1027.6 55.0948 1042 32.4913 1056 19.3177C1069.9 6.00279 1084 2.471 1098 6.10875C1112.3 9.88777 1126 21.1895 1141 32.4913C1154.6 43.793 1169 55.0948 1183 58.8738C1197 62.5115 1211 58.9797 1225 58.8738C1239.4 58.9797 1253 62.5115 1268 55.0948C1281.7 47.678 1296 28.6063 1310 21.1895C1324.1 13.7727 1338 17.3045 1352 24.9685C1366.4 32.4913 1381 43.793 1395 49.4439C1408.8 55.0948 1423 55.0948 1430 55.0948H1437V89H1429.9C1422.9 89 1409 89 1395 89C1380.5 89 1366 89 1352 89C1338.2 89 1324 89 1310 89C1295.8 89 1282 89 1268 89C1253.5 89 1239 89 1225 89C1211.1 89 1197 89 1183 89C1168.8 89 1155 89 1141 89C1126.4 89 1112 89 1098 89C1084.1 89 1070 89 1056 89C1041.7 89 1028 89 1013 89C999.4 89 985 89 971 89C957 89 943 89 929 89C914.6 89 901 89 886 89C872.3 89 858 89 844 89C829.9 89 816 89 802 89C787.6 89 773 89 759 89C745.2 89 731 89 717 89C702.9 89 689 89 675 89C660.5 89 646 89 632 89C618.2 89 604 89 590 89C575.8 89 562 89 548 89C533.5 89 519 89 505 89C491.1 89 477 89 463 89C448.8 89 435 89 421 89C406.4 89 392 89 378 89C364.1 89 350 89 336 89C321.7 89 308 89 293 89C279.4 89 265 89 251 89C237 89 223 89 209 89C194.6 89 181 89 166 89C152.3 89 138 89 124 89C109.9 89 96 89 82 89C67.6 89 53 89 39 89C25.2 89 11 89 4 89H-3V66.3965Z" fill="#5FC9F3"/>
<path d="M-3 73.3965L4.1 71.5247C11.1 69.5115 25 65.9797 39 65.8738C53.5 65.9797 68 69.5115 82 63.9666C95.8 58.2098 110 43.3762 124 37.6194C138.2 32.0745 152 35.6063 166 35.7122C180.5 35.6063 195 32.0745 209 35.7122C222.9 39.4913 237 50.793 251 52.6649C265.2 54.678 279 46.908 293 35.7122C307.6 24.3045 322 9.471 336 11.2369C349.9 13.0028 364 32.0745 378 31.9685C392.3 32.0745 406 13.0028 421 15.0159C434.6 16.8878 449 39.4913 463 47.014C477 54.678 491 46.908 505 48.9212C519.4 50.793 533 62.0948 548 54.572C561.7 46.908 576 20.7727 590 11.2369C604.1 1.70105 618 9.471 632 22.5386C646.4 35.6063 661 54.678 675 67.7456C688.8 80.8133 703 88.5832 717 82.8264C731.1 77.2815 745 58.2098 759 50.793C773.5 43.3762 788 46.908 802 45.1421C815.8 43.3762 830 35.6063 844 39.4913C858.2 43.3762 872 58.2098 886 65.8738C900.5 73.3965 915 73.3965 929 67.7456C942.9 62.0948 957 50.793 971 52.6649C985.2 54.678 999 69.5115 1013 65.8738C1027.6 62.0948 1042 39.4913 1056 26.3177C1069.9 13.0028 1084 9.471 1098 13.1088C1112.3 16.8878 1126 28.1895 1141 39.4913C1154.6 50.793 1169 62.0948 1183 65.8738C1197 69.5115 1211 65.9797 1225 65.8738C1239.4 65.9797 1253 69.5115 1268 62.0948C1281.7 54.678 1296 35.6063 1310 28.1895C1324.1 20.7727 1338 24.3045 1352 31.9685C1366.4 39.4913 1381 50.793 1395 56.4439C1408.8 62.0948 1423 62.0948 1430 62.0948H1437V96H1429.9C1422.9 96 1409 96 1395 96C1380.5 96 1366 96 1352 96C1338.2 96 1324 96 1310 96C1295.8 96 1282 96 1268 96C1253.5 96 1239 96 1225 96C1211.1 96 1197 96 1183 96C1168.8 96 1155 96 1141 96C1126.4 96 1112 96 1098 96C1084.1 96 1070 96 1056 96C1041.7 96 1028 96 1013 96C999.4 96 985 96 971 96C957 96 943 96 929 96C914.6 96 901 96 886 96C872.3 96 858 96 844 96C829.9 96 816 96 802 96C787.6 96 773 96 759 96C745.2 96 731 96 717 96C702.9 96 689 96 675 96C660.5 96 646 96 632 96C618.2 96 604 96 590 96C575.8 96 562 96 548 96C533.5 96 519 96 505 96C491.1 96 477 96 463 96C448.8 96 435 96 421 96C406.4 96 392 96 378 96C364.1 96 350 96 336 96C321.7 96 308 96 293 96C279.4 96 265 96 251 96C237 96 223 96 209 96C194.6 96 181 96 166 96C152.3 96 138 96 124 96C109.9 96 96 96 82 96C67.6 96 53 96 39 96C25.2 96 11 96 4 96H-3V73.3965Z" fill="#1E549F"/>
</svg>
