<svg width="102" height="102" viewBox="0 0 102 102" fill="none" xmlns="http://www.w3.org/2000/svg">
<path d="M82.875 0C88.1432 0 92.6478 1.87044 96.3887 5.61133C100.13 9.35221 102 13.8568 102 19.125V82.875C102 88.1432 100.13 92.6478 96.3887 96.3887C92.6478 100.13 88.1432 102 82.875 102H70.3906V62.4883H83.6055L85.5977 47.082H70.3906V37.2539C70.3906 34.7747 70.9108 32.9154 71.9512 31.6758C72.9915 30.4362 75.0169 29.8164 78.0273 29.8164L86.1289 29.75V16.0039C83.3398 15.6055 79.3997 15.4062 74.3086 15.4062C68.2878 15.4062 63.4733 17.1771 59.8652 20.7188C56.2572 24.2604 54.4531 29.263 54.4531 35.7266V47.082H41.1719V62.4883H54.4531V102H19.125C13.8568 102 9.35221 100.13 5.61133 96.3887C1.87044 92.6478 0 88.1432 0 82.875V19.125C0 13.8568 1.87044 9.35221 5.61133 5.61133C9.35221 1.87044 13.8568 0 19.125 0H82.875Z" fill="#103A58"/>
</svg>
