<svg width="102" height="102" viewBox="0 0 102 102" fill="none" xmlns="http://www.w3.org/2000/svg">
<path d="M101.721 29.9883C101.482 24.5686 100.606 20.8427 99.3501 17.6141C98.055 14.187 96.0624 11.1187 93.4518 8.56808C90.9012 5.97773 87.8127 3.96492 84.4253 2.68998C81.178 1.4345 77.4715 0.558077 72.0519 0.319124C66.5917 0.0599329 64.8583 0 51.0099 0C37.1615 0 35.4282 0.0599329 29.9883 0.298887C24.5686 0.53784 20.8427 1.41504 17.6148 2.66974C14.187 3.96492 11.1187 5.95749 8.56808 8.56808C5.97773 11.1187 3.96569 14.2072 2.68998 17.5946C1.4345 20.8427 0.558077 24.5484 0.319123 29.968C0.0599329 35.4282 0 37.1616 0 51.01C0 64.8584 0.0599329 66.5918 0.298886 72.0316C0.53784 77.4513 1.41504 81.1773 2.67052 84.4059C3.96569 87.8329 5.97773 90.9012 8.56808 93.4518C11.1187 96.0422 14.2072 98.055 17.5946 99.3299C20.8427 100.585 24.5484 101.462 29.9688 101.701C35.4079 101.941 37.1421 102 50.9905 102C64.8389 102 66.5723 101.941 72.0122 101.701C77.4318 101.462 81.1578 100.585 84.3856 99.3299C91.2405 96.6797 96.6602 91.26 99.3105 84.4059C100.565 81.1578 101.442 77.4513 101.681 72.0316C101.92 66.5918 101.98 64.8584 101.98 51.01C101.98 37.1616 101.96 35.4282 101.721 29.9883ZM92.5357 71.6331C92.3162 76.6146 91.4795 79.3046 90.7821 81.0979C89.0681 85.5415 85.5414 89.0682 81.0978 90.7821C79.3045 91.4795 76.5951 92.3162 71.6331 92.535C66.2532 92.7747 64.6396 92.8338 51.0302 92.8338C37.4207 92.8338 35.787 92.7747 30.4265 92.535C25.445 92.3162 22.7551 91.4795 20.9617 90.7821C18.7505 89.9648 16.7376 88.6697 15.1039 86.976C13.4102 85.322 12.115 83.3294 11.2978 81.1181C10.6003 79.3248 9.76362 76.6146 9.54491 71.6534C9.30517 66.2734 9.24602 64.6591 9.24602 51.0497C9.24602 37.4402 9.30517 35.8064 9.54491 30.4467C9.76362 25.4653 10.6003 22.7753 11.2978 20.982C12.115 18.7699 13.4102 16.7579 15.1241 15.1233C16.7773 13.4297 18.7699 12.1345 20.982 11.318C22.7753 10.6206 25.4855 9.78386 30.4467 9.56437C35.8267 9.32541 37.441 9.26548 51.0496 9.26548C64.6793 9.26548 66.2928 9.32541 71.6533 9.56437C76.6348 9.78386 79.3248 10.6206 81.1181 11.318C83.3294 12.1345 85.3422 13.4297 86.9759 15.1233C88.6696 16.7773 89.9648 18.7699 90.7821 20.982C91.4795 22.7753 92.3162 25.4847 92.5357 30.4467C92.7746 35.8267 92.8346 37.4402 92.8346 51.0497C92.8346 64.6591 92.7746 66.2532 92.5357 71.6331Z" fill="#103A58"/>
<path d="M51.01 24.8076C36.5444 24.8076 24.8076 36.5436 24.8076 51.01C24.8076 65.4764 36.5444 77.2124 51.01 77.2124C65.4764 77.2124 77.2124 65.4764 77.2124 51.01C77.2124 36.5436 65.4764 24.8076 51.01 24.8076ZM51.01 68.0068C41.6254 68.0068 34.0132 60.3953 34.0132 51.01C34.0132 41.6247 41.6254 34.0132 51.01 34.0132C60.3953 34.0132 68.0068 41.6247 68.0068 51.01C68.0068 60.3953 60.3953 68.0068 51.01 68.0068Z" fill="#103A58"/>
<path d="M84.3658 23.7716C84.3658 27.1496 81.6267 29.8887 78.2479 29.8887C74.8699 29.8887 72.1309 27.1496 72.1309 23.7716C72.1309 20.3928 74.8699 17.6545 78.2479 17.6545C81.6267 17.6545 84.3658 20.3928 84.3658 23.7716V23.7716Z" fill="#103A58"/>
</svg>
