<svg width="1440" height="150" viewBox="0 0 1440 150" fill="none" xmlns="http://www.w3.org/2000/svg">
<g opacity="0.54" filter="url(#filter0_f)">
<path fill-rule="evenodd" clip-rule="evenodd" d="M-3.99436e-07 27.2813L7.00972 43.6096C15.0208 59.9379 29.0403 92.3433 44.0611 105.155C58.0805 117.715 73.1014 110.43 87.1208 103.396C102.142 96.1114 116.161 88.8265 131.182 76.2662C145.201 63.4548 160.222 45.3681 175.243 52.653C189.262 59.938 204.283 92.3433 218.303 106.913C233.324 121.483 247.343 117.715 262.364 103.396C276.383 88.8265 291.404 63.4548 305.424 59.938C320.444 56.1699 335.465 74.2566 349.485 79.7831C364.506 85.3096 378.525 78.0247 393.546 78.0247C407.565 78.0247 422.586 85.3096 436.606 76.2663C451.626 67.2229 465.646 41.8513 480.667 47.1266C495.688 52.6531 509.707 88.8265 524.728 92.3434C538.747 96.1115 553.768 67.2229 567.788 65.2133C582.808 63.4549 596.828 88.8265 611.849 103.396C625.868 117.715 640.889 121.483 655.91 112.44C669.929 103.396 684.95 81.5416 698.969 72.4983C713.99 63.4549 728.01 67.223 743.031 72.4983C757.05 78.0248 772.071 85.3097 786.09 88.8266C801.111 92.3434 816.132 92.3434 830.151 83.3001C845.172 74.2567 859.192 56.17 874.213 50.8947C888.232 45.3682 903.253 52.6531 917.272 56.17C932.293 59.9381 946.313 59.9381 961.333 63.4549C976.354 67.223 990.374 74.2567 1005.39 83.3001C1019.41 92.3435 1034.43 103.396 1048.45 92.3435C1063.48 81.5417 1077.49 49.1363 1092.52 34.5665C1106.53 19.9966 1121.56 23.7647 1136.58 34.5665C1150.6 45.3683 1165.62 63.455 1179.64 61.6966C1194.66 59.9381 1208.68 38.0833 1223.7 40.093C1237.72 41.8514 1252.74 67.2231 1266.76 81.5417C1281.78 96.1116 1296.8 99.6285 1310.82 101.387C1325.84 103.397 1339.86 103.397 1354.88 90.5851C1368.9 78.0249 1383.92 52.6532 1397.94 49.1364C1412.96 45.3683 1426.98 63.455 1434.99 72.4984L1442 81.5418L1442 125L1434.99 125C1426.98 125 1412.96 125 1397.94 125C1383.92 125 1368.9 125 1354.88 125C1339.86 125 1325.84 125 1310.82 125C1296.8 125 1281.78 125 1266.76 125C1252.74 125 1237.72 125 1223.7 125C1208.68 125 1194.66 125 1179.64 125C1165.62 125 1150.6 125 1136.58 125C1121.56 125 1106.53 125 1092.52 125C1077.49 125 1063.48 125 1048.45 125C1034.43 125 1019.41 125 1005.39 125C990.374 125 976.354 125 961.333 125C946.313 125 932.293 125 917.272 125C903.253 125 888.232 125 874.212 125C859.192 125 845.172 125 830.151 125C816.132 125 801.111 125 786.09 125C772.071 125 757.05 125 743.031 125C728.01 125 713.99 125 698.969 125C684.95 125 669.929 125 655.91 125C640.889 125 625.868 125 611.849 125C596.828 125 582.808 125 567.787 125C553.768 125 538.747 125 524.728 125C509.707 125 495.687 125 480.667 125C465.646 125 451.626 125 436.606 125C422.586 125 407.565 125 393.546 125C378.525 125 364.506 125 349.485 125C335.465 125 320.444 125 305.424 125C291.404 125 276.383 125 262.364 125C247.343 125 233.324 125 218.303 125C204.283 125 189.262 125 175.243 125C160.222 125 145.201 125 131.182 125C116.161 125 102.142 125 87.1208 125C73.1014 125 58.0805 125 44.0611 125C29.0403 125 15.0208 125 7.0097 125L-1.75088e-05 125L-3.99436e-07 27.2813Z" fill="#5FC9F3"/>
<path fill-rule="evenodd" clip-rule="evenodd" d="M-3.99436e-07 27.2813L7.00972 43.6096C15.0208 59.9379 29.0403 92.3433 44.0611 105.155C58.0805 117.715 73.1014 110.43 87.1208 103.396C102.142 96.1114 116.161 88.8265 131.182 76.2662C145.201 63.4548 160.222 45.3681 175.243 52.653C189.262 59.938 204.283 92.3433 218.303 106.913C233.324 121.483 247.343 117.715 262.364 103.396C276.383 88.8265 291.404 63.4548 305.424 59.938C320.444 56.1699 335.465 74.2566 349.485 79.7831C364.506 85.3096 378.525 78.0247 393.546 78.0247C407.565 78.0247 422.586 85.3096 436.606 76.2663C451.626 67.2229 465.646 41.8513 480.667 47.1266C495.688 52.6531 509.707 88.8265 524.728 92.3434C538.747 96.1115 553.768 67.2229 567.788 65.2133C582.808 63.4549 596.828 88.8265 611.849 103.396C625.868 117.715 640.889 121.483 655.91 112.44C669.929 103.396 684.95 81.5416 698.969 72.4983C713.99 63.4549 728.01 67.223 743.031 72.4983C757.05 78.0248 772.071 85.3097 786.09 88.8266C801.111 92.3434 816.132 92.3434 830.151 83.3001C845.172 74.2567 859.192 56.17 874.213 50.8947C888.232 45.3682 903.253 52.6531 917.272 56.17C932.293 59.9381 946.313 59.9381 961.333 63.4549C976.354 67.223 990.374 74.2567 1005.39 83.3001C1019.41 92.3435 1034.43 103.396 1048.45 92.3435C1063.48 81.5417 1077.49 49.1363 1092.52 34.5665C1106.53 19.9966 1121.56 23.7647 1136.58 34.5665C1150.6 45.3683 1165.62 63.455 1179.64 61.6966C1194.66 59.9381 1208.68 38.0833 1223.7 40.093C1237.72 41.8514 1252.74 67.2231 1266.76 81.5417C1281.78 96.1116 1296.8 99.6285 1310.82 101.387C1325.84 103.397 1339.86 103.397 1354.88 90.5851C1368.9 78.0249 1383.92 52.6532 1397.94 49.1364C1412.96 45.3683 1426.98 63.455 1434.99 72.4984L1442 81.5418L1442 125L1434.99 125C1426.98 125 1412.96 125 1397.94 125C1383.92 125 1368.9 125 1354.88 125C1339.86 125 1325.84 125 1310.82 125C1296.8 125 1281.78 125 1266.76 125C1252.74 125 1237.72 125 1223.7 125C1208.68 125 1194.66 125 1179.64 125C1165.62 125 1150.6 125 1136.58 125C1121.56 125 1106.53 125 1092.52 125C1077.49 125 1063.48 125 1048.45 125C1034.43 125 1019.41 125 1005.39 125C990.374 125 976.354 125 961.333 125C946.313 125 932.293 125 917.272 125C903.253 125 888.232 125 874.212 125C859.192 125 845.172 125 830.151 125C816.132 125 801.111 125 786.09 125C772.071 125 757.05 125 743.031 125C728.01 125 713.99 125 698.969 125C684.95 125 669.929 125 655.91 125C640.889 125 625.868 125 611.849 125C596.828 125 582.808 125 567.787 125C553.768 125 538.747 125 524.728 125C509.707 125 495.687 125 480.667 125C465.646 125 451.626 125 436.606 125C422.586 125 407.565 125 393.546 125C378.525 125 364.506 125 349.485 125C335.465 125 320.444 125 305.424 125C291.404 125 276.383 125 262.364 125C247.343 125 233.324 125 218.303 125C204.283 125 189.262 125 175.243 125C160.222 125 145.201 125 131.182 125C116.161 125 102.142 125 87.1208 125C73.1014 125 58.0805 125 44.0611 125C29.0403 125 15.0208 125 7.0097 125L-1.75088e-05 125L-3.99436e-07 27.2813Z" stroke="black"/>
</g>
<path opacity="0.7" fill-rule="evenodd" clip-rule="evenodd" d="M-3.99436e-07 27.2813L7.00972 43.6096C15.0208 59.9379 29.0403 92.3433 44.0611 105.155C58.0805 117.715 73.1014 110.43 87.1208 103.396C102.142 96.1114 116.161 88.8265 131.182 76.2662C145.201 63.4548 160.222 45.3681 175.243 52.653C189.262 59.938 204.283 92.3433 218.303 106.913C233.324 121.483 247.343 117.715 262.364 103.396C276.383 88.8265 291.404 63.4548 305.424 59.938C320.444 56.1699 335.465 74.2566 349.485 79.7831C364.506 85.3096 378.525 78.0247 393.546 78.0247C407.565 78.0247 422.586 85.3096 436.606 76.2663C451.626 67.2229 465.646 41.8513 480.667 47.1266C495.688 52.6531 509.707 88.8265 524.728 92.3434C538.747 96.1115 553.768 67.2229 567.788 65.2133C582.808 63.4549 596.828 88.8265 611.849 103.396C625.868 117.715 640.889 121.483 655.91 112.44C669.929 103.396 684.95 81.5416 698.969 72.4983C713.99 63.4549 728.01 67.223 743.031 72.4983C757.05 78.0248 772.071 85.3097 786.09 88.8266C801.111 92.3434 816.132 92.3434 830.151 83.3001C845.172 74.2567 859.192 56.17 874.213 50.8947C888.232 45.3682 903.253 52.6531 917.272 56.17C932.293 59.9381 946.313 59.9381 961.333 63.4549C976.354 67.223 990.374 74.2567 1005.39 83.3001C1019.41 92.3435 1034.43 103.396 1048.45 92.3435C1063.48 81.5417 1077.49 49.1363 1092.52 34.5665C1106.53 19.9966 1121.56 23.7647 1136.58 34.5665C1150.6 45.3683 1165.62 63.455 1179.64 61.6966C1194.66 59.9381 1208.68 38.0833 1223.7 40.093C1237.72 41.8514 1252.74 67.2231 1266.76 81.5417C1281.78 96.1116 1296.8 99.6285 1310.82 101.387C1325.84 103.397 1339.86 103.397 1354.88 90.5851C1368.9 78.0249 1383.92 52.6532 1397.94 49.1364C1412.96 45.3683 1426.98 63.455 1434.99 72.4984L1442 81.5418L1442 125L1434.99 125C1426.98 125 1412.96 125 1397.94 125C1383.92 125 1368.9 125 1354.88 125C1339.86 125 1325.84 125 1310.82 125C1296.8 125 1281.78 125 1266.76 125C1252.74 125 1237.72 125 1223.7 125C1208.68 125 1194.66 125 1179.64 125C1165.62 125 1150.6 125 1136.58 125C1121.56 125 1106.53 125 1092.52 125C1077.49 125 1063.48 125 1048.45 125C1034.43 125 1019.41 125 1005.39 125C990.374 125 976.354 125 961.333 125C946.313 125 932.293 125 917.272 125C903.253 125 888.232 125 874.212 125C859.192 125 845.172 125 830.151 125C816.132 125 801.111 125 786.09 125C772.071 125 757.05 125 743.031 125C728.01 125 713.99 125 698.969 125C684.95 125 669.929 125 655.91 125C640.889 125 625.868 125 611.849 125C596.828 125 582.808 125 567.787 125C553.768 125 538.747 125 524.728 125C509.707 125 495.687 125 480.667 125C465.646 125 451.626 125 436.606 125C422.586 125 407.565 125 393.546 125C378.525 125 364.506 125 349.485 125C335.465 125 320.444 125 305.424 125C291.404 125 276.383 125 262.364 125C247.343 125 233.324 125 218.303 125C204.283 125 189.262 125 175.243 125C160.222 125 145.201 125 131.182 125C116.161 125 102.142 125 87.1208 125C73.1014 125 58.0805 125 44.0611 125C29.0403 125 15.0208 125 7.0097 125L-1.75088e-05 125L-3.99436e-07 27.2813Z" fill="#5FC9F3"/>
<path fill-rule="evenodd" clip-rule="evenodd" d="M-3.51504e-07 43.0076L7.00972 57.3765C15.0208 71.7454 29.0403 100.262 44.0611 111.536C58.0805 122.589 73.1014 116.178 87.1208 109.989C102.142 103.578 116.161 97.1673 131.182 86.1143C145.201 74.8402 160.222 58.9239 175.243 65.3347C189.262 71.7454 204.283 100.262 218.303 113.084C233.324 125.905 247.343 122.589 262.364 109.989C276.383 97.1673 291.404 74.8403 305.424 71.7454C320.444 68.4295 335.465 84.3458 349.485 89.2092C364.506 94.0725 378.525 87.6617 393.546 87.6617C407.565 87.6617 422.586 94.0725 436.606 86.1143C451.626 78.1562 465.646 55.8291 480.667 60.4714C495.688 65.3347 509.707 97.1673 524.728 100.262C538.747 103.578 553.768 78.1562 567.788 76.3877C582.808 74.8403 596.828 97.1674 611.849 109.989C625.868 122.589 640.889 125.905 655.91 117.947C669.929 109.989 684.95 90.7566 698.969 82.7985C713.99 74.8403 728.01 78.1562 743.031 82.7985C757.05 87.6618 772.071 94.0725 786.09 97.1674C801.111 100.262 816.132 100.262 830.151 92.3041C845.172 84.3459 859.192 68.4296 874.213 63.7874C888.232 58.924 903.253 65.3348 917.272 68.4296C932.293 71.7455 946.313 71.7455 961.333 74.8404C976.354 78.1563 990.374 84.3459 1005.39 92.3041C1019.41 100.262 1034.43 109.989 1048.45 100.262C1063.48 90.7567 1077.49 62.24 1092.52 49.4185C1106.53 36.597 1121.56 39.9129 1136.58 49.4185C1150.6 58.9241 1165.62 74.8404 1179.64 73.293C1194.66 71.7456 1208.68 52.5134 1223.7 54.2818C1237.72 55.8293 1252.74 78.1563 1266.76 90.7567C1281.78 103.578 1296.8 106.673 1310.82 108.22C1325.84 109.989 1339.86 109.989 1354.88 98.7149C1368.9 87.6619 1383.92 65.3349 1397.94 62.24C1412.96 58.9241 1426.98 74.8404 1434.99 82.7986L1442 90.7568L1442 129L1434.99 129C1426.98 129 1412.96 129 1397.94 129C1383.92 129 1368.9 129 1354.88 129C1339.86 129 1325.84 129 1310.82 129C1296.8 129 1281.78 129 1266.76 129C1252.74 129 1237.72 129 1223.7 129C1208.68 129 1194.66 129 1179.64 129C1165.62 129 1150.6 129 1136.58 129C1121.56 129 1106.53 129 1092.52 129C1077.49 129 1063.48 129 1048.45 129C1034.43 129 1019.41 129 1005.39 129C990.374 129 976.354 129 961.333 129C946.313 129 932.293 129 917.272 129C903.253 129 888.232 129 874.213 129C859.192 129 845.172 129 830.151 129C816.132 129 801.111 129 786.09 129C772.071 129 757.05 129 743.031 129C728.01 129 713.99 129 698.969 129C684.95 129 669.929 129 655.91 129C640.889 129 625.868 129 611.849 129C596.828 129 582.808 129 567.787 129C553.768 129 538.747 129 524.728 129C509.707 129 495.687 129 480.667 129C465.646 129 451.626 129 436.606 129C422.586 129 407.565 129 393.546 129C378.525 129 364.506 129 349.485 129C335.465 129 320.444 129 305.424 129C291.404 129 276.383 129 262.364 129C247.343 129 233.324 129 218.303 129C204.283 129 189.262 129 175.243 129C160.222 129 145.201 129 131.182 129C116.161 129 102.142 129 87.1208 129C73.1014 129 58.0805 129 44.0611 129C29.0403 129 15.0208 129 7.00971 129L-1.54078e-05 129L-3.51504e-07 43.0076Z" fill="url(#paint0_linear)"/>
<defs>
<filter id="filter0_f" x="-25" y="0" width="1492" height="150" filterUnits="userSpaceOnUse" color-interpolation-filters="sRGB">
<feFlood flood-opacity="0" result="BackgroundImageFix"/>
<feBlend mode="normal" in="SourceGraphic" in2="BackgroundImageFix" result="shape"/>
<feGaussianBlur stdDeviation="12.5" result="effect1_foregroundBlur"/>
</filter>
<linearGradient id="paint0_linear" x1="721" y1="129" x2="730.5" y2="-226" gradientUnits="userSpaceOnUse">
<stop stop-color="#1E549F"/>
<stop offset="1" stop-color="#1E549F"/>
</linearGradient>
</defs>
</svg>
