<svg width="1440" height="150" viewBox="0 0 1440 150" fill="none" xmlns="http://www.w3.org/2000/svg">
<g opacity="0.54" filter="url(#filter0_f)">
<path fill-rule="evenodd" clip-rule="evenodd" d="M1440 122.719L1433 106.39C1425 90.0621 1411 57.6567 1396 44.8453C1382 32.285 1367 39.57 1353 46.6037C1338 53.8886 1324 61.1736 1309 73.7338C1295 86.5452 1280 104.632 1265 97.347C1251 90.0621 1236 57.6567 1222 43.0868C1207 28.517 1193 32.285 1178 46.6037C1164 61.1735 1149 86.5452 1135 90.0621C1120 93.8301 1105 75.7434 1091 70.2169C1076 64.6904 1062 71.9753 1047 71.9753C1033 71.9753 1018 64.6904 1004 73.7338C989 82.7771 975 108.149 960 102.873C945 97.347 931 61.1735 916 57.6567C902 53.8886 887 82.7771 873 84.7867C858 86.5452 844 61.1735 829 46.6037C815 32.285 800 28.5169 785 37.5603C771 46.6037 756 68.4584 742 77.5018C727 86.5452 713 82.7771 698 77.5018C684 71.9753 669 64.6904 655 61.1735C640 57.6566 625 57.6566 611 66.7C596 75.7434 582 93.8301 567 99.1054C553 104.632 538 97.3469 524 93.8301C509 90.062 495 90.062 480 86.5451C465 82.7771 451 75.7433 436 66.7C422 57.6566 407 46.6036 393 57.6566C378 68.4584 364 100.864 349 115.434C335 130.003 320 126.235 305 115.434C291 104.632 276 86.5451 262 88.3035C247 90.062 233 111.917 218 109.907C204 108.149 189 82.777 175 68.4584C160 53.8885 145 50.3717 131 48.6132C116 46.6036 102 46.6036 87 59.415C73 71.9752 58 97.3469 44 100.864C29 104.632 15 86.5451 7 77.5017L4.94302e-06 68.4584L8.74227e-06 25L7.00001 25C15 25 29 25 44 25C58 25 73 25 87 25C102 25 116 25 131 25C145 25 160 25 175 25C189 25 204 25 218 25C233 25 247 25 262 25C276 25 291 25 305 25C320 25 335 25 349 25C364 25 378 25 393 25C407 25 422 25 436 25C451 25 465 25 480 25C495 25 509 25 524 25C538 25 553 25 567 25C582 25.0001 596 25.0001 611 25.0001C625 25.0001 640 25.0001 655 25.0001C669 25.0001 684 25.0001 698 25.0001C713 25.0001 727 25.0001 742 25.0001C756 25.0001 771 25.0001 785 25.0001C800 25.0001 815 25.0001 829 25.0001C844 25.0001 858 25.0001 873 25.0001C887 25.0001 902 25.0001 916 25.0001C931 25.0001 945 25.0001 960 25.0001C975 25.0001 989 25.0001 1004 25.0001C1018 25.0001 1033 25.0001 1047 25.0001C1062 25.0001 1076 25.0001 1091 25.0001C1105 25.0001 1120 25.0001 1135 25.0001C1149 25.0001 1164 25.0001 1178 25.0001C1193 25.0001 1207 25.0001 1222 25.0001C1236 25.0001 1251 25.0001 1265 25.0001C1280 25.0001 1295 25.0001 1309 25.0001C1324 25.0001 1338 25.0001 1353 25.0001C1367 25.0001 1382 25.0001 1396 25.0001C1411 25.0001 1425 25.0001 1433 25.0001L1440 25.0001L1440 122.719Z" fill="#5FC9F3"/>
<path fill-rule="evenodd" clip-rule="evenodd" d="M1440 122.719L1433 106.39C1425 90.0621 1411 57.6567 1396 44.8453C1382 32.285 1367 39.57 1353 46.6037C1338 53.8886 1324 61.1736 1309 73.7338C1295 86.5452 1280 104.632 1265 97.347C1251 90.0621 1236 57.6567 1222 43.0868C1207 28.517 1193 32.285 1178 46.6037C1164 61.1735 1149 86.5452 1135 90.0621C1120 93.8301 1105 75.7434 1091 70.2169C1076 64.6904 1062 71.9753 1047 71.9753C1033 71.9753 1018 64.6904 1004 73.7338C989 82.7771 975 108.149 960 102.873C945 97.347 931 61.1735 916 57.6567C902 53.8886 887 82.7771 873 84.7867C858 86.5452 844 61.1735 829 46.6037C815 32.285 800 28.5169 785 37.5603C771 46.6037 756 68.4584 742 77.5018C727 86.5452 713 82.7771 698 77.5018C684 71.9753 669 64.6904 655 61.1735C640 57.6566 625 57.6566 611 66.7C596 75.7434 582 93.8301 567 99.1054C553 104.632 538 97.3469 524 93.8301C509 90.062 495 90.062 480 86.5451C465 82.7771 451 75.7433 436 66.7C422 57.6566 407 46.6036 393 57.6566C378 68.4584 364 100.864 349 115.434C335 130.003 320 126.235 305 115.434C291 104.632 276 86.5451 262 88.3035C247 90.062 233 111.917 218 109.907C204 108.149 189 82.777 175 68.4584C160 53.8885 145 50.3717 131 48.6132C116 46.6036 102 46.6036 87 59.415C73 71.9752 58 97.3469 44 100.864C29 104.632 15 86.5451 7 77.5017L4.94302e-06 68.4584L8.74227e-06 25L7.00001 25C15 25 29 25 44 25C58 25 73 25 87 25C102 25 116 25 131 25C145 25 160 25 175 25C189 25 204 25 218 25C233 25 247 25 262 25C276 25 291 25 305 25C320 25 335 25 349 25C364 25 378 25 393 25C407 25 422 25 436 25C451 25 465 25 480 25C495 25 509 25 524 25C538 25 553 25 567 25C582 25.0001 596 25.0001 611 25.0001C625 25.0001 640 25.0001 655 25.0001C669 25.0001 684 25.0001 698 25.0001C713 25.0001 727 25.0001 742 25.0001C756 25.0001 771 25.0001 785 25.0001C800 25.0001 815 25.0001 829 25.0001C844 25.0001 858 25.0001 873 25.0001C887 25.0001 902 25.0001 916 25.0001C931 25.0001 945 25.0001 960 25.0001C975 25.0001 989 25.0001 1004 25.0001C1018 25.0001 1033 25.0001 1047 25.0001C1062 25.0001 1076 25.0001 1091 25.0001C1105 25.0001 1120 25.0001 1135 25.0001C1149 25.0001 1164 25.0001 1178 25.0001C1193 25.0001 1207 25.0001 1222 25.0001C1236 25.0001 1251 25.0001 1265 25.0001C1280 25.0001 1295 25.0001 1309 25.0001C1324 25.0001 1338 25.0001 1353 25.0001C1367 25.0001 1382 25.0001 1396 25.0001C1411 25.0001 1425 25.0001 1433 25.0001L1440 25.0001L1440 122.719Z" stroke="black"/>
</g>
<path opacity="0.7" fill-rule="evenodd" clip-rule="evenodd" d="M1440 122.719L1433 106.39C1425 90.0621 1411 57.6567 1396 44.8453C1382 32.285 1367 39.57 1353 46.6037C1338 53.8886 1324 61.1736 1309 73.7338C1295 86.5452 1280 104.632 1265 97.347C1251 90.0621 1236 57.6567 1222 43.0868C1207 28.517 1193 32.285 1178 46.6037C1164 61.1735 1149 86.5452 1135 90.0621C1120 93.8301 1105 75.7434 1091 70.2169C1076 64.6904 1062 71.9753 1047 71.9753C1033 71.9753 1018 64.6904 1004 73.7338C989 82.7771 975 108.149 960 102.873C945 97.347 931 61.1735 916 57.6567C902 53.8886 887 82.7771 873 84.7867C858 86.5452 844 61.1735 829 46.6037C815 32.285 800 28.5169 785 37.5603C771 46.6037 756 68.4584 742 77.5018C727 86.5452 713 82.7771 698 77.5018C684 71.9753 669 64.6904 655 61.1735C640 57.6566 625 57.6566 611 66.7C596 75.7434 582 93.8301 567 99.1054C553 104.632 538 97.3469 524 93.8301C509 90.062 495 90.062 480 86.5451C465 82.7771 451 75.7433 436 66.7C422 57.6566 407 46.6036 393 57.6566C378 68.4584 364 100.864 349 115.434C335 130.003 320 126.235 305 115.434C291 104.632 276 86.5451 262 88.3035C247 90.062 233 111.917 218 109.907C204 108.149 189 82.777 175 68.4584C160 53.8885 145 50.3717 131 48.6132C116 46.6036 102 46.6036 87 59.415C73 71.9752 58 97.3469 44 100.864C29 104.632 15 86.5451 7 77.5017L4.94302e-06 68.4584L8.74227e-06 25L7.00001 25C15 25 29 25 44 25C58 25 73 25 87 25C102 25 116 25 131 25C145 25 160 25 175 25C189 25 204 25 218 25C233 25 247 25 262 25C276 25 291 25 305 25C320 25 335 25 349 25C364 25 378 25 393 25C407 25 422 25 436 25C451 25 465 25 480 25C495 25 509 25 524 25C538 25 553 25 567 25C582 25.0001 596 25.0001 611 25.0001C625 25.0001 640 25.0001 655 25.0001C669 25.0001 684 25.0001 698 25.0001C713 25.0001 727 25.0001 742 25.0001C756 25.0001 771 25.0001 785 25.0001C800 25.0001 815 25.0001 829 25.0001C844 25.0001 858 25.0001 873 25.0001C887 25.0001 902 25.0001 916 25.0001C931 25.0001 945 25.0001 960 25.0001C975 25.0001 989 25.0001 1004 25.0001C1018 25.0001 1033 25.0001 1047 25.0001C1062 25.0001 1076 25.0001 1091 25.0001C1105 25.0001 1120 25.0001 1135 25.0001C1149 25.0001 1164 25.0001 1178 25.0001C1193 25.0001 1207 25.0001 1222 25.0001C1236 25.0001 1251 25.0001 1265 25.0001C1280 25.0001 1295 25.0001 1309 25.0001C1324 25.0001 1338 25.0001 1353 25.0001C1367 25.0001 1382 25.0001 1396 25.0001C1411 25.0001 1425 25.0001 1433 25.0001L1440 25.0001L1440 122.719Z" fill="#5FC9F3"/>
<path fill-rule="evenodd" clip-rule="evenodd" d="M1440 106.992L1433 92.6235C1425 78.2546 1411 49.7379 1396 38.4639C1382 27.4109 1367 33.8216 1353 40.0113C1338 46.422 1324 52.8327 1309 63.8857C1295 75.1598 1280 91.0761 1265 84.6654C1251 78.2546 1236 49.7379 1222 36.9164C1207 24.0949 1193 27.4108 1178 40.0113C1164 52.8327 1149 75.1598 1135 78.2546C1120 81.5705 1105 65.6542 1091 60.7909C1076 55.9276 1062 62.3383 1047 62.3383C1033 62.3383 1018 55.9276 1004 63.8857C989 71.8439 975 94.1709 960 89.5286C945 84.6653 931 52.8327 916 49.7379C902 46.422 887 71.8439 873 73.6123C858 75.1597 844 52.8327 829 40.0112C815 27.4108 800 24.0949 785 32.0531C771 40.0112 756 59.2434 742 67.2016C727 75.1597 713 71.8438 698 67.2016C684 62.3383 669 55.9275 655 52.8327C640 49.7378 625 49.7378 611 57.696C596 65.6542 582 81.5705 567 86.2127C553 91.076 538 84.6653 524 81.5705C509 78.2546 495 78.2546 480 75.1597C465 71.8438 451 65.6541 436 57.696C422 49.7378 407 40.0112 393 49.7378C378 59.2434 364 87.7601 349 100.582C335 113.403 320 110.087 305 100.582C291 91.076 276 75.1597 262 76.7071C247 78.2545 233 97.4867 218 95.7183C204 94.1708 189 71.8438 175 59.2434C160 46.4219 145 43.3271 131 41.7796C116 40.0112 102 40.0112 87 51.2852C73 62.3382 58 84.6653 44 87.7601C29 91.076 15 75.1597 7 67.2015L4.34985e-06 59.2434L7.69319e-06 21L7.00001 21C15 21 29 21 44 21C58 21 73 21 87 21C102 21 116 21 131 21C145 21 160 21 175 21C189 21 204 21 218 21C233 21 247 21 262 21C276 21 291 21 305 21C320 21 335 21 349 21C364 21 378 21 393 21C407 21 422 21 436 21C451 21 465 21 480 21C495 21 509 21 524 21.0001C538 21.0001 553 21.0001 567 21.0001C582 21.0001 596 21.0001 611 21.0001C625 21.0001 640 21.0001 655 21.0001C669 21.0001 684 21.0001 698 21.0001C713 21.0001 727 21.0001 742 21.0001C756 21.0001 771 21.0001 785 21.0001C800 21.0001 815 21.0001 829 21.0001C844 21.0001 858 21.0001 873 21.0001C887 21.0001 902 21.0001 916 21.0001C931 21.0001 945 21.0001 960 21.0001C975 21.0001 989 21.0001 1004 21.0001C1018 21.0001 1033 21.0001 1047 21.0001C1062 21.0001 1076 21.0001 1091 21.0001C1105 21.0001 1120 21.0001 1135 21.0001C1149 21.0001 1164 21.0001 1178 21.0001C1193 21.0001 1207 21.0001 1222 21.0001C1236 21.0001 1251 21.0001 1265 21.0001C1280 21.0001 1295 21.0001 1309 21.0001C1324 21.0001 1338 21.0001 1353 21.0001C1367 21.0001 1382 21.0001 1396 21.0001C1411 21.0001 1425 21.0001 1433 21.0001L1440 21.0001L1440 106.992Z" fill="url(#paint0_linear)"/>
<defs>
<filter id="filter0_f" x="-25" y="0" width="1490" height="150" filterUnits="userSpaceOnUse" color-interpolation-filters="sRGB">
<feFlood flood-opacity="0" result="BackgroundImageFix"/>
<feBlend mode="normal" in="SourceGraphic" in2="BackgroundImageFix" result="shape"/>
<feGaussianBlur stdDeviation="12.5" result="effect1_foregroundBlur"/>
</filter>
<linearGradient id="paint0_linear" x1="720" y1="109" x2="720" y2="21.0001" gradientUnits="userSpaceOnUse">
<stop stop-color="#1E549F"/>
<stop offset="1" stop-color="#1E549F"/>
</linearGradient>
</defs>
</svg>
