<svg width="26" height="26" viewBox="0 0 26 26" fill="none" xmlns="http://www.w3.org/2000/svg">
<g clip-path="url(#clip0)">
<path d="M20.7188 0C22.0358 0 23.1619 0.467611 24.0972 1.40283C25.0324 2.33805 25.5 3.46419 25.5 4.78125V20.7188C25.5 22.0358 25.0324 23.1619 24.0972 24.0972C23.1619 25.0324 22.0358 25.5 20.7188 25.5H17.5977V15.6221H20.9014L21.3994 11.7705H17.5977V9.31348C17.5977 8.69368 17.7277 8.22884 17.9878 7.91895C18.2479 7.60905 18.7542 7.4541 19.5068 7.4541L21.5322 7.4375V4.00098C20.835 3.90137 19.8499 3.85156 18.5771 3.85156C17.0719 3.85156 15.8683 4.29427 14.9663 5.17969C14.0643 6.0651 13.6133 7.31576 13.6133 8.93164V11.7705H10.293V15.6221H13.6133V25.5H4.78125C3.46419 25.5 2.33805 25.0324 1.40283 24.0972C0.467611 23.1619 0 22.0358 0 20.7188V4.78125C0 3.46419 0.467611 2.33805 1.40283 1.40283C2.33805 0.467611 3.46419 0 4.78125 0H20.7188Z" fill="white"/>
</g>
<defs>
<clipPath id="clip0">
<rect width="25.5" height="25.5" fill="white"/>
</clipPath>
</defs>
</svg>
